<svg id="Calque_1" data-name="Calque 1" xmlns="http://www.w3.org/2000/svg" viewBox="0 0 525.81 90.58"><defs><style>.cls-1{fill:#1d1d1b;}.cls-2{fill:#e94e1b;}</style></defs><title>logo</title><path class="cls-1" d="M76.73,99.33a5.88,5.88,0,0,1,1.37,4.32,12.42,12.42,0,0,1-1.22,5.47q-1.36,2.73-3.39,3.16l-7.27,1.29q-4.45,1.16-4.46,3.89a5.89,5.89,0,0,0,.72,2.59,36.25,36.25,0,0,0,1.87,3.16,14.08,14.08,0,0,1,1.37,3.31,46.37,46.37,0,0,1,.65,11Q66,150.33,54.05,158.24q-9.21,6.1-16.27,6.11a14.46,14.46,0,0,1-10.29-4.17,16.51,16.51,0,0,1-2.63-3.42,7.37,7.37,0,0,1-1.33-3.27q0-2.3,8.49-5.61a76.16,76.16,0,0,0,12-5.61q7.41-4.89,6.76-10.57c-.24-2-1.63-3.45-4.17-4.32q-3.47-1-7-1.94-3.6-1.36-3.6-4.53a9.37,9.37,0,0,1,.51-2.81,20.67,20.67,0,0,1,8.93-11.22,50.49,50.49,0,0,1,14-5.75q7-1.51,14-3.09c0-.1,0-.15.15-.15a4.72,4.72,0,0,1,1.58.54A5.86,5.86,0,0,1,76.73,99.33Z" transform="translate(-23.53 -94.08)"/><path class="cls-1" d="M122.53,129.07a27.49,27.49,0,0,1,.57,5.47,19.68,19.68,0,0,1-5.69,14.55,87,87,0,0,1-8.42,7.7q-5.61,4.17-10.44,4A10.62,10.62,0,0,1,89.62,156a16.74,16.74,0,0,1-2.88-9.87,15.79,15.79,0,0,1,.15-2.16,38.8,38.8,0,0,1,5.76-16q5.25-8.72,11.73-11.16a8.14,8.14,0,0,1,3.1-.58q4.81,0,9.43,4A16.15,16.15,0,0,1,122.53,129.07Zm-22,13q5.83-4,7.78-7.78a7.77,7.77,0,0,0,.79-1.87c0,.19-.26-.48-.79-2a22.64,22.64,0,0,0-5.18,5.32Q100.5,139.31,100.49,142Z" transform="translate(-23.53 -94.08)"/><path class="cls-1" d="M150,159.53a20.19,20.19,0,0,1-4.11.43,18.19,18.19,0,0,1-15.33-7.56,10.43,10.43,0,0,1-2.09-6.55q0-5.68,4.68-13.54a51.13,51.13,0,0,1,5.11-7.63q3.75-4.25,7.85-4.25a8.88,8.88,0,0,1,1.94.22c3.46.76,5.19,2.35,5.19,4.75q0,2.16-2.27,6.66t-2.27,6.08a28.52,28.52,0,0,0,7.42-5.9,64.35,64.35,0,0,1,6.69-6.41,12.49,12.49,0,0,1,8.57-2.59q8.72.72,8.71,7a13.06,13.06,0,0,1-2.23,6.63,14.56,14.56,0,0,0,4.1,1.87,11.61,11.61,0,0,1,3.6,1.58,4.24,4.24,0,0,1,1.52,3.6,14.69,14.69,0,0,1-.15,2,10.52,10.52,0,0,1-4.32,6.91,12.41,12.41,0,0,1-7.56,2.45,10.09,10.09,0,0,1-9.5-5.47q-2.31.93-7.42,5.18Q153.56,158.74,150,159.53Z" transform="translate(-23.53 -94.08)"/><path class="cls-1" d="M198.7,139.44c-2.16-.58-3.24-1.87-3.24-3.89a8.62,8.62,0,0,1,1.94-5.18Q203.6,122,218.14,120a92.41,92.41,0,0,1,12-1,41.77,41.77,0,0,1,9.36,1,20,20,0,0,1,9.22,4.68,12.08,12.08,0,0,1,4.39,9.57,19.34,19.34,0,0,1-6.26,13.83A25,25,0,0,1,233,155q-.57.07-5,1.22a23.45,23.45,0,0,1-5.32.72q-3.83,0-6.84,3.75a49.46,49.46,0,0,0-4.18,7.27l-5,10.22q-3.81,6.48-8.06,6.48a7.36,7.36,0,0,1-3.75-1.15c-2.69-1.58-4-3.53-4-5.83q0-2.88,3.24-7.63,4.24-6.27,4.68-7.27a62,62,0,0,1,3.74-6.84q3.31-5.48,4-6.77c.86-1.59,1.94-3.74,3.24-6.48a12.2,12.2,0,0,0,1.29-3.89,3.63,3.63,0,0,0-.07-1.73l-.58-1.51c-1.48.91-3,1.8-4.53,2.66a9.78,9.78,0,0,1-4.9,1.52A9.29,9.29,0,0,1,198.7,139.44Zm22.68-2.59c-.19,3.69.74,5.54,2.81,5.54q4,0,11.45-7.49a24.62,24.62,0,0,0-9.15-2.23C223.23,132.67,221.52,134.06,221.38,136.85Z" transform="translate(-23.53 -94.08)"/><path class="cls-1" d="M266.6,156.93a20.32,20.32,0,0,1-7.56-16.2q0-10.14,7.56-18.14A19.11,19.11,0,0,1,281,116.4a16.13,16.13,0,0,1,9.57,2.95,7.72,7.72,0,0,1,3.53,6.55,29.14,29.14,0,0,1-.94,5.76,12.34,12.34,0,0,1-4.82,7.42,25.36,25.36,0,0,1-8.21,3.6q-4.47.93-9,1.94a8.09,8.09,0,0,0,7.92,4.83q7.35,0,16.71-6.77a11.19,11.19,0,0,1,1.94,5.9q0,5.26-6.26,8.64a26.69,26.69,0,0,1-13.11,3.1Q270.62,160.32,266.6,156.93Zm7.12-25.27a9.72,9.72,0,0,0,2.59.58,6.86,6.86,0,0,0,3.25-1.23c1.53-.91,2.3-1.87,2.3-2.88a14.32,14.32,0,0,0-.36-2.3Q276,128.14,273.72,131.66Z" transform="translate(-23.53 -94.08)"/><path class="cls-2" d="M313.25,110.93q-3.24,4.6-5.83,4.53-3.32-.06-3.31-3.89a18.08,18.08,0,0,1,.61-3.92,18.08,18.08,0,0,0,.61-3.92v-2.81q0-6.84,6.59-6.84,6.15,0,6.15,5T313.25,110.93Z" transform="translate(-23.53 -94.08)"/><path class="cls-2" d="M368.26,116.76q4.89,1.88,4.89,8.64a48.59,48.59,0,0,1-.36,5,22,22,0,0,0-11.52,3.38,55.34,55.34,0,0,0-9.21,7.63,61.38,61.38,0,0,0-7,8.93q-4.68,6.91-6.62,9.22a3.9,3.9,0,0,1-3.1,1.44,9.67,9.67,0,0,1-4.17-1.23l-3.75-2.16a6.11,6.11,0,0,1-3.24-5.76,22.07,22.07,0,0,1,2.24-8.28l3.6-7.34q2.22-4.9,5.18-11c.82-1.68,1.85-2.52,3.1-2.52a4.33,4.33,0,0,1,3.09,1.59,10.15,10.15,0,0,1,2.23,3.52,22.48,22.48,0,0,0,6.63-4.17q5.4-4.32,6.55-5.11a13.63,13.63,0,0,1,7.34-2.52A11.47,11.47,0,0,1,368.26,116.76Z" transform="translate(-23.53 -94.08)"/><path class="cls-1" d="M381.79,160.1c-2.3-.86-3.45-2.77-3.45-5.75q0-3.09,2.16-9.12,9.64-27.61,24-23.94a7.58,7.58,0,0,1,5.4,5q.08.15,1.73,7.35c1.06-.39,2.93-1.92,5.62-4.61,2.35-2.35,4.36-3.53,6-3.53a5.76,5.76,0,0,1,1.94.36q4.82,1.88,5.83,14.26c0,.62.07,1.24.07,1.87A25.9,25.9,0,0,1,429,152.54q-2.52,5.69-7,7.63a5.82,5.82,0,0,1-2.38.58q-4.17,0-6.69-9c-1.2.43-3,1.73-5.47,3.89-2,1.78-3.94,2.66-5.76,2.66a8.25,8.25,0,0,1-1.08-.07,3.52,3.52,0,0,1-2.88-2.34c-.58-1.37-1.13-2.75-1.66-4.14l-5,5.86q-3,3.13-6.05,3.14A8.76,8.76,0,0,1,381.79,160.1Z" transform="translate(-23.53 -94.08)"/><path class="cls-1" d="M464.23,154.34a20.65,20.65,0,0,1-2.08-3.81c-.77-1.44-1.59-2.16-2.45-2.16a3.67,3.67,0,0,0-1.95.79,88.27,88.27,0,0,1-8.42,5.18,10.65,10.65,0,0,1-5.11,1.51,6.76,6.76,0,0,1-6-3.6,15,15,0,0,1-2-8.06A20.81,20.81,0,0,1,442,129.93a33.27,33.27,0,0,1,13.17-8.64,27.35,27.35,0,0,1,9.65-1.94q10.72,0,10.44,10.37a8.4,8.4,0,0,1-2.3,5.11,21,21,0,0,0-3.53,4.61,11.81,11.81,0,0,0-1.15,5.11c0,3.07,1.24,5,3.74,5.91a9.14,9.14,0,0,0,2.95.43q3.32,0,10.66-2.38a51.12,51.12,0,0,0,8-3.53c2.49-1.39,5-2.81,7.56-4.25a16.64,16.64,0,0,1,.36,3.39q0,7.27-7,12a26.3,26.3,0,0,1-15.05,4.32Q469.42,160.46,464.23,154.34ZM447.39,142a7,7,0,0,0,1.44.14q7.2,0,13.46-9.86a15,15,0,0,0-8.5,2.95A23.34,23.34,0,0,0,447.39,142Z" transform="translate(-23.53 -94.08)"/><path class="cls-1" d="M542.86,123.24q5,2.37,5,9.93,0,2.88-2.37,8.21a10.37,10.37,0,0,0-1,4q0,3.3,4.9,6.33a55.18,55.18,0,0,1-4.32,6.34,8.27,8.27,0,0,1-6.7,2.73,7.65,7.65,0,0,1-6.34-3.31,17.38,17.38,0,0,1-2.23-6.84c-.38-2.45-.77-4.9-1.15-7.34a17.51,17.51,0,0,0-4.9,5q-1.73,3-3.49,5.9a28.77,28.77,0,0,1-2.55,3.74,5.76,5.76,0,0,1-4,2.16q-5.48.3-6.48-5.83a13.82,13.82,0,0,1-.22-2.52,18.84,18.84,0,0,1,1.58-7.13,65.75,65.75,0,0,1,3.5-6.8,72.93,72.93,0,0,0,3.56-6.88c2-4.79,4.3-7.2,7-7.2a5.5,5.5,0,0,1,3.39,1.37,2.88,2.88,0,0,0,1.87.65,13.57,13.57,0,0,0,5-1.66,37.78,37.78,0,0,1,5.4-2.23A39.32,39.32,0,0,1,542.86,123.24Z" transform="translate(-23.53 -94.08)"/></svg>